<svg xmlns="http://www.w3.org/2000/svg" width="18" height="10" viewBox="0 0 18 10">
    <path fill="#FFF" d="M1.069 9.822c.117 0 .217-.034.299-.1.082-.068.139-.143.169-.225l.825-2.165h4.115l.826 2.165c.034.095.09.173.169.234.078.06.177.091.299.091h1.065L5.12.488H3.72L.003 9.822h1.066zM6.1 6.345H2.746l1.378-3.608c.048-.126.096-.269.146-.429.05-.16.099-.334.147-.52.1.377.199.689.299.936L6.1 6.344zm3.991 3.477c.117 0 .217-.034.299-.1.082-.068.139-.143.169-.225l.825-2.165H15.5l.825 2.165c.035.095.092.173.17.234.078.06.177.091.299.091h1.066L14.14.488h-1.397L9.025 9.822h1.066zm5.031-3.477h-3.354l1.378-3.608c.048-.126.096-.269.146-.429.05-.16.099-.334.146-.52.1.377.2.689.3.936l1.384 3.62z"/>
</svg>
