<svg xmlns="http://www.w3.org/2000/svg" width="34" height="12" viewBox="0 0 34 12">
    <path fill="#FFF" d="M1.318 11.488c.144 0 .267-.041.368-.124.101-.083.17-.175.208-.276L2.91 8.424h5.064l1.016 2.664c.043.117.112.213.208.288.096.075.219.112.368.112h1.312L6.302 0h-1.72L.006 11.488h1.312zm6.192-4.28H3.382l1.696-4.44c.059-.155.119-.33.18-.528.061-.197.121-.41.18-.64.123.464.245.848.368 1.152L7.51 7.208zm4.912 4.28c.144 0 .267-.041.368-.124.101-.083.17-.175.208-.276l1.016-2.664h5.064l1.016 2.664c.043.117.112.213.208.288.096.075.219.112.368.112h1.312L17.406 0h-1.72L11.11 11.488h1.312zm6.192-4.28h-4.128l1.696-4.44c.059-.155.119-.33.18-.528.061-.197.121-.41.18-.64.123.464.245.848.368 1.152l1.704 4.456zm4.912 4.28c.144 0 .267-.041.368-.124.101-.083.17-.175.208-.276l1.016-2.664h5.064l1.016 2.664c.043.117.112.213.208.288.096.075.219.112.368.112h1.312L28.51 0h-1.72l-4.576 11.488h1.312zm6.192-4.28H25.59l1.696-4.44c.059-.155.119-.33.18-.528.061-.197.121-.41.18-.64.123.464.245.848.368 1.152l1.704 4.456z"/>
</svg>
