<svg xmlns="http://www.w3.org/2000/svg" width="24" height="24" viewBox="0 0 24 24">
    <path fill="#282C71" d="M11.997 0C5.382 0 0 5.382 0 11.997s5.382 11.997 11.997 11.997c2.11 0 4.184-.555 6-1.606l-1.501-2.596c-1.36.787-2.917 1.203-4.499 1.203-4.962 0-8.998-4.036-8.998-8.998s4.036-8.998 8.998-8.998 8.998 4.036 8.998 8.998v1.306c0 .981-.63 1.693-1.5 1.693-.827 0-1.5-.673-1.5-1.5V7.499h-2.073c-1.055-.922-2.418-1.5-3.925-1.5-3.308 0-5.999 2.691-5.999 5.999 0 3.307 2.691 5.998 5.999 5.998 1.575 0 2.999-.622 4.07-1.619.826.982 2.048 1.62 3.428 1.62 2.523 0 4.499-2.062 4.499-4.693v-1.306C23.994 5.382 18.612 0 11.997 0zm0 14.996c-1.654 0-3-1.345-3-2.999 0-1.654 1.346-3 3-3s3 1.346 3 3-1.346 3-3 3z"/>
</svg>
