<svg xmlns="http://www.w3.org/2000/svg" width="82" height="71" viewBox="0 0 82 71">
    <g fill="#282C71">
        <path d="M22.902 1.607c0 .888-.717 1.607-1.601 1.607-.885 0-1.602-.72-1.602-1.607C19.7.72 20.416 0 21.301 0c.884 0 1.601.72 1.601 1.607z"/>
        <path d="M60.7 0c-9.098 0-15.773 6.12-19.696 14.235-1.878-3.9-5.623-9.786-11.998-12.623-.808-.36-1.754.006-2.113.817-.358.812.006 1.76.815 2.12 8.434 3.754 11.727 14.295 11.76 14.399.203.677.825 1.14 1.53 1.14H41c.704 0 1.326-.462 1.532-1.138 1.9-6.28 8.075-15.736 18.167-15.736 10.148 0 18.098 8.579 18.098 19.53 0 5.391-2.005 10.298-6.484 15.827H59.517l-4.961-18.104c-.187-.682-.797-1.162-1.502-1.18-.7-.023-1.339.426-1.562 1.098l-8.09 24.354-3.285-9.89c-.218-.656-.83-1.099-1.52-1.099h-8.454l-4.44-13.365c-.223-.672-.854-1.124-1.562-1.099-.705.02-1.315.499-1.501 1.18l-4.962 18.105H9.687c-4.479-5.53-6.484-10.436-6.484-15.827 0-8.284 4.558-15.465 11.61-18.295.822-.33 1.222-1.265.894-2.09-.328-.823-1.26-1.225-2.082-.894C5.522 4.715 0 13.059 0 22.745c0 5.41 1.809 10.505 5.65 15.826H1.603c-.885 0-1.602.72-1.602 1.608 0 .887.717 1.607 1.602 1.607H8.19c7.115 8.303 18.447 16.846 31.755 28.53.302.266.678.398 1.055.398.377 0 .753-.132 1.055-.397C55.348 58.646 66.699 50.084 73.81 41.786h6.588c.885 0 1.602-.72 1.602-1.607 0-.888-.717-1.608-1.602-1.608H76.35C80.191 33.25 82 28.156 82 22.744 82 10.433 73.002 0 60.7 0zM41 66.975c-11.661-10.178-21.697-17.933-28.498-25.19h6.396c.721 0 1.354-.483 1.544-1.18l3.889-14.188 3.138 9.448c.218.657.83 1.1 1.52 1.1h8.454l4.44 13.364c.217.657.83 1.1 1.52 1.1.689 0 1.3-.443 1.518-1.1l7.944-23.912 3.887 14.188c.192.697.824 1.179 1.545 1.179h11.201C62.7 49.037 52.646 56.81 41 66.974z"/>
    </g>
</svg>
