<svg xmlns="http://www.w3.org/2000/svg" width="72" height="72" viewBox="0 0 72 72">
    <g fill="#282C71">
        <path d="M70.8 21.6h-1.2V8.4c0-.663-.537-1.2-1.2-1.2H48v-6c0-.663-.537-1.2-1.2-1.2H25.2c-.663 0-1.2.537-1.2 1.2v6H3.6c-.663 0-1.2.537-1.2 1.2v13.2H1.2c-.663 0-1.2.537-1.2 1.2v4.8c0 .663.537 1.2 1.2 1.2h1.2v42c0 .663.537 1.2 1.2 1.2h64.8c.663 0 1.2-.537 1.2-1.2v-42h1.2c.663 0 1.2-.537 1.2-1.2v-4.8c0-.663-.537-1.2-1.2-1.2zM48 9.6h19.2v12H48v-12zM26.4 2.4h19.2v19.2H26.4V2.4zM4.8 9.6H24v12H4.8v-12zm54 60H43.2V60h15.6v9.6zm0-12H43.2v-12h15.6v12zm0-14.4H43.2v-6h15.6v6zm8.4 26.4h-6V36c0-.663-.537-1.2-1.2-1.2H42c-.663 0-1.2.537-1.2 1.2v33.6h-36V28.8h62.4v40.8zm2.4-43.2H2.4V24h67.2v2.4z"/>
        <path d="M12 61.2h21.6c.663 0 1.2-.537 1.2-1.2v-6c0-.663-.537-1.2-1.2-1.2h-1.2V36c0-.663-.537-1.2-1.2-1.2H14.4c-.663 0-1.2.537-1.2 1.2v16.8H12c-.663 0-1.2.537-1.2 1.2v6c0 .663.537 1.2 1.2 1.2zm3.6-24H30v15.6H15.6V37.2zm-2.4 18h19.2v3.6H13.2v-3.6zM55.2 52.8c.663 0 1.2-.537 1.2-1.2v-1.2c0-.663-.537-1.2-1.2-1.2-.663 0-1.2.537-1.2 1.2v1.2c0 .663.537 1.2 1.2 1.2zM42 8.4h-2.4V6c0-.663-.537-1.2-1.2-1.2h-4.8c-.663 0-1.2.537-1.2 1.2v2.4H30c-.663 0-1.2.537-1.2 1.2v4.8c0 .663.537 1.2 1.2 1.2h2.4V18c0 .663.537 1.2 1.2 1.2h4.8c.663 0 1.2-.537 1.2-1.2v-2.4H42c.663 0 1.2-.537 1.2-1.2V9.6c0-.663-.537-1.2-1.2-1.2zm-1.2 4.8h-2.4c-.663 0-1.2.537-1.2 1.2v2.4h-2.4v-2.4c0-.663-.537-1.2-1.2-1.2h-2.4v-2.4h2.4c.663 0 1.2-.537 1.2-1.2V7.2h2.4v2.4c0 .663.537 1.2 1.2 1.2h2.4v2.4z"/>
        <path d="M20.048 45.248l3.6-3.6c.455-.47.449-1.219-.014-1.682-.463-.463-1.211-.47-1.682-.014l-3.6 3.6c-.312.3-.438.747-.327 1.167.11.42.437.747.856.856.42.11.866-.015 1.167-.327zM25.552 42.352l-6 6c-.312.3-.438.747-.327 1.167.11.42.437.747.856.856.42.11.866-.015 1.167-.327l6-6c.455-.47.449-1.219-.014-1.682-.463-.463-1.211-.47-1.682-.014z"/>
    </g>
</svg>
