<svg xmlns="http://www.w3.org/2000/svg" width="16" height="16" viewBox="0 0 16 16">
    <path fill="#FFF" d="M7.998 0C3.588 0 0 3.588 0 7.998s3.588 7.998 7.998 7.998c1.406 0 2.79-.37 4-1.07l-1-1.732c-.908.525-1.945.802-3 .802-3.308 0-5.999-2.69-5.999-5.998C2 4.69 4.69 1.999 7.998 1.999s5.998 2.691 5.998 5.999v.87c0 .655-.42 1.13-1 1.13-.55 0-1-.45-1-1v-4h-1.381C9.912 4.385 9.003 4 7.998 4c-2.205 0-3.999 1.794-3.999 3.999s1.794 3.999 3.999 3.999c1.05 0 2-.415 2.714-1.08.55.655 1.365 1.08 2.285 1.08 1.681 0 2.999-1.374 2.999-3.128v-.871C15.996 3.588 12.408 0 7.998 0zm0 9.997c-1.103 0-2-.896-2-1.999 0-1.103.897-2 2-2s2 .897 2 2-.897 2-2 2z"/>
</svg>
