<svg xmlns="http://www.w3.org/2000/svg" width="71" height="80" viewBox="0 0 71 80">
    <path fill="#282C71" d="M70.625 75.904l-3.518-20.72c-.38-2.232-1.953-4.025-4.109-4.68l-9.488-2.88c-.196-2.333-1.147-4.534-2.73-6.277-1.266-1.394-2.858-2.408-4.614-2.968.3-.336.58-.67.835-.997 2.256-2.887 3.464-6.067 3.772-8.238h.732c1.904 0 3.452-1.558 3.452-3.474v-1.78c0-1.278-.714-2.437-1.79-3.038V16.57c0-.647-.52-1.171-1.164-1.171-.643 0-1.164.524-1.164 1.171v4.807c-.454.08-.995.216-1.548.45-.057.022-.112.046-.164.075-.125.057-.25.117-.375.185v-9.44c0-2.609-2.11-4.73-4.702-4.73h-3.214c-1.109 0-2.192.388-3.05 1.094l-.315.26c-.58.476-1.311.738-2.06.738-.748 0-1.48-.262-2.059-.739l-.315-.26c-.858-.705-1.941-1.094-3.05-1.094h-3.214c-2.593 0-4.702 2.122-4.702 4.73v9.441c-.125-.068-.25-.128-.375-.185-.052-.03-.107-.053-.164-.074-.553-.235-1.095-.372-1.548-.45V9.222c0-3.794 3.068-6.88 6.838-6.88H44c3.771 0 6.839 3.086 6.839 6.88v1.841c0 .647.521 1.172 1.164 1.172.643 0 1.165-.525 1.165-1.172V9.223C53.168 4.137 49.055 0 44 0H26.822c-5.054 0-9.167 4.137-9.167 9.223v11.63c-1.075.6-1.79 1.759-1.79 3.037v1.78c0 1.916 1.55 3.474 3.453 3.474h.732c.308 2.17 1.516 5.351 3.772 8.238.255.327.534.66.834.996-4.035 1.29-6.978 4.939-7.343 9.247l-9.489 2.88c-2.155.654-3.73 2.447-4.108 4.68l-1.429 8.413c-.108.638.318 1.243.952 1.352.634.11 1.236-.32 1.344-.957l1.429-8.414c.229-1.35 1.181-2.436 2.485-2.831l8.776-2.664V52.4c-2.012.373-3.723 1.763-4.428 3.689-.187.511-.304 1.047-.346 1.59l-.848 10.953c-.064.825.22 1.647.778 2.254s1.35.956 2.173.956h1.451c.644 0 1.165-.525 1.165-1.172 0-.647-.521-1.171-1.165-1.171h-1.451c-.176 0-.344-.075-.464-.204-.119-.13-.179-.305-.165-.48l.848-10.953c.025-.33.096-.654.21-.963.49-1.34 1.814-2.248 3.295-2.258l.192-.002h.027c1.44 0 2.714.822 3.251 2.098.151.358.243.737.273 1.125l.848 10.953c.014.175-.046.35-.165.48-.12.13-.288.204-.464.204h-1.451c-.644 0-1.165.524-1.165 1.17 0 .648.521 1.172 1.165 1.172h1.451c.823 0 1.615-.348 2.173-.955.559-.607.842-1.429.778-2.254l-.848-10.952c-.05-.641-.201-1.266-.45-1.857-.767-1.821-2.408-3.088-4.34-3.43v-3.017l4.004-1.215c.364.772 1.086 2.44 2.515 6.034 1.441 3.627 3.232 8.276 4.95 12.796.012.038.026.075.042.111 1.146 3.018 2.258 5.973 3.209 8.522.17.458.605.76 1.09.76.486 0 .92-.302 1.09-.76.951-2.549 2.063-5.504 3.21-8.522.016-.036.03-.073.042-.11 1.716-4.518 3.506-9.164 4.946-12.79 1.432-3.6 2.154-5.269 2.519-6.041l4.003 1.215v6.92c-2.774.542-4.875 3.003-4.875 5.95 0 3.341 2.703 6.06 6.026 6.06 3.322 0 6.025-2.718 6.025-6.06 0-2.938-2.087-5.393-4.847-5.945v-6.218l8.776 2.664c1.304.396 2.256 1.48 2.485 2.83l3.518 20.72c.058.344-.033.68-.256.946-.223.266-.537.413-.884.413H3.633c-.346 0-.66-.147-.884-.413-.223-.266-.314-.602-.255-.946l1.16-6.838c.109-.637-.317-1.243-.951-1.352-.634-.109-1.236.32-1.344.958L.198 75.904c-.173 1.02.108 2.06.771 2.851C1.633 79.546 2.604 80 3.633 80H67.19c1.03 0 2-.454 2.664-1.245.664-.792.945-1.83.772-2.851zm-19.772-52.14c.62-.156 1.118-.153 1.124-.153.2.003.395-.044.569-.136.052.13.082.27.082.415v1.78c0 .624-.504 1.131-1.124 1.131h-.651v-3.037zM19.97 26.8h-.652c-.62 0-1.124-.507-1.124-1.13V23.89c0-.145.031-.285.083-.415.173.092.368.14.569.136.009.002.505-.001 1.124.154V26.8zm2.329 1.314v-3.078c.353.106.739.092 1.095-.058.611-.256 1.006-.852 1.006-1.518V12.647c0-1.317 1.064-2.388 2.373-2.388h3.214c.573 0 1.132.201 1.576.566l.315.26c.994.817 2.249 1.267 3.533 1.267 1.285 0 2.54-.45 3.533-1.268l.316-.26c.443-.364 1.003-.565 1.576-.565h3.214c1.308 0 2.373 1.071 2.373 2.388V23.46c0 .666.394 1.262 1.006 1.519.204.085.417.127.63.127.157 0 .314-.024.465-.069v3.077c0 1.71-1.176 5.032-3.354 7.82-.722.922-1.65 1.914-2.791 2.781-.036.024-.071.05-.104.079-1.77 1.316-4.044 2.324-6.864 2.324-2.82 0-5.094-1.008-6.863-2.324-.034-.028-.068-.055-.104-.079-1.142-.867-2.07-1.859-2.791-2.782-2.179-2.787-3.354-6.109-3.354-7.82zM43.04 47.042l-7.629 5.737-7.629-5.737c.757-.967 1.18-2.209 1.18-3.317v-1.888c1.795.97 3.935 1.625 6.45 1.625 2.513 0 4.654-.655 6.448-1.625v1.888c0 1.108.424 2.35 1.18 3.317zM25.84 45.735c-.622-.239-1.311-.278-1.964-.1l-.083.023-4.023 1.22c.68-3.365 3.397-6.044 6.865-6.563v3.41c0 .735-.326 1.495-.795 2.01zm3.16 9.404l-.006-.016-.175-.445-.031-.08-.168-.425-.012-.03-.499-1.255-.035-.088c-.046-.115-.09-.228-.136-.34l-.049-.122-.129-.322-.038-.093-.226-.56-.06-.149-.085-.21-.09-.222-.035-.083-.026-.064c-.135-.329-.262-.639-.384-.93l-.003-.007-.188-.451-.093-.22 6.561 4.933-2.742 1.171-.014.007-1.145.489-.192-.488zm2.779 7.173l-.694-1.808c-.363-.943-.71-1.84-1.042-2.695l.435-.186 1.775 2.077-.474 2.612zm3.656 9.522c-.034-.07-.073-.136-.12-.197-.526-1.4-1.193-3.17-1.933-5.118l1.088-5.988h1.885l1.087 5.988c-.775 2.041-1.47 3.886-2.007 5.315zm1.357-13.646h-2.76l-1.304-1.526 2.684-1.148 2.685 1.148-1.305 1.526zm2.948 2.316c-.233.604-.464 1.208-.694 1.808l-.475-2.613 1.776-2.076.434.186c-.331.854-.678 1.752-1.041 2.695zm4.46-11.257l-.179.427-.024.057-.185.449-.013.03-.169.412-.031.077-.04.096-.077.19-.097.237-.031.079-.25.617-.04.1-.128.318-.05.126-.135.337-.038.096-.492 1.238-.017.043-.167.422-.031.08-.176.447-.003.008-.194.494-1.146-.49-.012-.005-2.743-1.172 6.561-4.933-.093.22zm2.832-3.59h-.004c-.675-.204-1.396-.17-2.043.078-.47-.515-.795-1.275-.795-2.01v-3.412c3.49.518 6.198 3.172 6.87 6.567l-4.028-1.222zm9.037 16.59c0 2.05-1.658 3.718-3.696 3.718-2.039 0-3.697-1.668-3.697-3.719 0-2.05 1.658-3.719 3.697-3.719 2.038 0 3.696 1.668 3.696 3.72z"/>
</svg>
