<svg xmlns="http://www.w3.org/2000/svg" width="119" height="44" viewBox="0 0 119 44">
    <g fill="none">
        <path fill="#FFF" stroke="#FFF" d="M2.595 22.439V6.782l13.681 15.657h.767V.855h-2.507v15.863L.766.855H0V22.44h2.595zm33.117.53c2.054 0 3.956-.5 5.706-1.503 1.75-1.003 3.125-2.379 4.128-4.128 1.002-1.75 1.503-3.652 1.503-5.706 0-2.054-.506-3.956-1.518-5.705-1.012-1.75-2.403-3.12-4.172-4.114-1.77-.992-3.706-1.489-5.81-1.489-2.004 0-3.876.502-5.616 1.504-1.74 1.003-3.11 2.384-4.113 4.143-1.003 1.76-1.504 3.666-1.504 5.72s.501 3.951 1.504 5.69c1.002 1.74 2.388 3.107 4.157 4.1 1.77.992 3.68 1.488 5.735 1.488zm-.074-2.476c-2.378 0-4.422-.856-6.133-2.566-1.71-1.71-2.565-3.798-2.565-6.265 0-2.467.83-4.56 2.492-6.28 1.66-1.72 3.73-2.58 6.206-2.58 2.418 0 4.487.854 6.207 2.564 1.72 1.71 2.58 3.824 2.58 6.34s-.85 4.61-2.55 6.28c-1.7 1.671-3.78 2.507-6.237 2.507zm26.911 2.476L71.955.855h-2.713l-7.017 16.6-6.9-16.6h-2.713l9.259 22.114h.678zm28.385-.53v-2.507h-9.937V12.03h9.937V9.553h-9.937V3.361h10.025V.855h-12.56V22.44h12.472zm7.568 0l3.302-7.224h8.905l3.332 7.224h2.683L106.67 0h-.766L95.7 22.439h2.8zm11.057-9.79h-6.575l3.302-7.283 3.273 7.283z" transform="translate(1 1)"/>
        <path fill="#52E0A8" d="M31.838 42.037c2.025 0 3.617-.747 4.777-2.241l-.988-.752c-1.022 1.19-2.226 1.784-3.612 1.784-1.386 0-2.514-.42-3.383-1.26-.87-.841-1.305-1.888-1.305-3.14 0-1.254.445-2.313 1.334-3.178.89-.865 1.949-1.297 3.177-1.297 1.504 0 2.767.619 3.79 1.857l.972-.752c-.55-.766-1.236-1.349-2.057-1.747-.82-.398-1.749-.597-2.786-.597s-2.002.246-2.897.737c-.894.492-1.595 1.17-2.1 2.035-.507.865-.76 1.808-.76 2.83 0 1.652.545 3.018 1.636 4.1 1.091 1.08 2.492 1.62 4.202 1.62zm15.672-.266v-1.223h-4.07V30.98h-1.282V41.77h5.352zm6.266 0V30.98h-1.268V41.77h1.268zm7.209 0v-7.828l6.84 7.828h.384V30.98h-1.253v7.931L60.07 30.98h-.384V41.77h1.298zm14.404 0V30.98H74.12V41.77h1.268zm11.248.266c2.025 0 3.617-.747 4.777-2.241l-.988-.752c-1.022 1.19-2.226 1.784-3.612 1.784-1.386 0-2.513-.42-3.383-1.26-.87-.841-1.305-1.888-1.305-3.14 0-1.254.445-2.313 1.334-3.178.89-.865 1.949-1.297 3.177-1.297 1.504 0 2.767.619 3.79 1.857l.972-.752c-.55-.766-1.236-1.349-2.056-1.747-.821-.398-1.75-.597-2.787-.597s-2.002.246-2.897.737c-.894.492-1.594 1.17-2.1 2.035-.507.865-.76 1.808-.76 2.83 0 1.652.546 3.018 1.637 4.1 1.09 1.08 2.491 1.62 4.201 1.62z" transform="translate(1 1)"/>
    </g>
</svg>
