<svg xmlns="http://www.w3.org/2000/svg" width="97" height="36" viewBox="0 0 97 36">
    <g fill="none">
        <path fill="#282C71" stroke="#282C71" d="M2.112 18.264V5.52l11.136 12.744h.624V.696h-2.04v12.912L.624.696H0v17.568h2.112zm26.956.432c1.672 0 3.22-.408 4.644-1.224 1.424-.816 2.544-1.936 3.36-3.36.816-1.424 1.224-2.972 1.224-4.644 0-1.672-.412-3.22-1.236-4.644-.824-1.424-1.956-2.54-3.396-3.348C32.224.668 30.648.264 28.936.264c-1.632 0-3.156.408-4.572 1.224-1.416.816-2.532 1.94-3.348 3.372-.816 1.432-1.224 2.984-1.224 4.656 0 1.672.408 3.216 1.224 4.632.816 1.416 1.944 2.528 3.384 3.336 1.44.808 2.996 1.212 4.668 1.212zm-.06-2.016c-1.936 0-3.6-.696-4.992-2.088-1.392-1.392-2.088-3.092-2.088-5.1 0-2.008.676-3.712 2.028-5.112 1.352-1.4 3.036-2.1 5.052-2.1 1.968 0 3.652.696 5.052 2.088 1.4 1.392 2.1 3.112 2.1 5.16s-.692 3.752-2.076 5.112c-1.384 1.36-3.076 2.04-5.076 2.04zm21.904 2.016l7.656-18H56.36l-5.712 13.512L45.032.696h-2.208l7.536 18h.552zm23.104-.432v-2.04h-8.088V9.792h8.088V7.776h-8.088v-5.04h8.16V.696H63.864v17.568h10.152zm6.16 0l2.688-5.88h7.248l2.712 5.88h2.184L86.824 0H86.2l-8.304 18.264h2.28zm9-7.968h-5.352l2.688-5.928 2.664 5.928z" transform="translate(1 1)"/>
        <path fill="#52E0A8" d="M25.752 34.216c1.648 0 2.944-.608 3.888-1.824l-.804-.612c-.832.968-1.812 1.452-2.94 1.452s-2.046-.342-2.754-1.026c-.708-.684-1.062-1.536-1.062-2.556s.362-1.882 1.086-2.586c.724-.704 1.586-1.056 2.586-1.056 1.224 0 2.252.504 3.084 1.512l.792-.612c-.448-.624-1.006-1.098-1.674-1.422-.668-.324-1.424-.486-2.268-.486-.844 0-1.63.2-2.358.6-.728.4-1.298.952-1.71 1.656-.412.704-.618 1.472-.618 2.304 0 1.344.444 2.456 1.332 3.336.888.88 2.028 1.32 3.42 1.32zM38.508 34v-.996h-3.312v-7.788h-1.044V34h4.356zm5.1 0v-8.784h-1.032V34h1.032zm5.868 0v-6.372L55.044 34h.312v-8.784h-1.02v6.456l-5.604-6.456h-.312V34h1.056zM61.2 34v-8.784h-1.032V34H61.2zm9.156.216c1.648 0 2.944-.608 3.888-1.824l-.804-.612c-.832.968-1.812 1.452-2.94 1.452s-2.046-.342-2.754-1.026c-.708-.684-1.062-1.536-1.062-2.556s.362-1.882 1.086-2.586c.724-.704 1.586-1.056 2.586-1.056 1.224 0 2.252.504 3.084 1.512l.792-.612c-.448-.624-1.006-1.098-1.674-1.422-.668-.324-1.424-.486-2.268-.486-.844 0-1.63.2-2.358.6-.728.4-1.298.952-1.71 1.656-.412.704-.618 1.472-.618 2.304 0 1.344.444 2.456 1.332 3.336.888.88 2.028 1.32 3.42 1.32z" transform="translate(1 1)"/>
    </g>
</svg>
