<svg xmlns="http://www.w3.org/2000/svg" width="33" height="31" viewBox="0 0 33 31">
    <path fill="#282C71" d="M4.08 31.02c3.16-2.76 5.63-5.79 7.41-9.09 1.78-3.3 2.67-6.77 2.67-10.41 0-1.92-.26-3.84-.78-5.76S12.02 1.92 10.86 0L4.32 2.64c-1.08.44-1.62 1.14-1.62 2.1 0 .44.14.88.42 1.32.92 1.52 1.57 2.96 1.95 4.32.38 1.36.57 2.68.57 3.96 0 1.2-.14 2.34-.42 3.42-.28 1.08-.66 2.11-1.14 3.09-.48.98-1.02 1.92-1.62 2.82-.6.9-1.22 1.73-1.86 2.49-.4.4-.6.88-.6 1.44 0 .24.05.48.15.72.1.24.31.46.63.66l3.3 2.04zm18.24 0c3.16-2.76 5.63-5.79 7.41-9.09 1.78-3.3 2.67-6.77 2.67-10.41 0-1.92-.26-3.84-.78-5.76S30.26 1.92 29.1 0l-6.54 2.64c-1.08.44-1.62 1.14-1.62 2.1 0 .44.14.88.42 1.32.92 1.52 1.57 2.96 1.95 4.32.38 1.36.57 2.68.57 3.96 0 1.2-.14 2.34-.42 3.42-.28 1.08-.66 2.11-1.14 3.09-.48.98-1.02 1.92-1.62 2.82-.6.9-1.22 1.73-1.86 2.49-.4.4-.6.88-.6 1.44 0 .24.05.48.15.72.1.24.31.46.63.66l3.3 2.04z"/>
</svg>
